<?xml version="1.0" encoding="UTF-8"?>
<svg width="600" height="400" viewBox="0 0 600 400" fill="none" xmlns="http://www.w3.org/2000/svg">
    <!-- Background Elements -->
    <circle cx="500" cy="100" r="80" fill="#EFF6FF" />
    <circle cx="100" cy="300" r="60" fill="#DBEAFE" />
    
    <!-- AI Brain Icon -->
    <g transform="translate(250, 100)">
        <circle cx="50" cy="50" r="40" fill="#3B82F6" />
        <path d="M30 50 Q50 20 70 50 Q50 80 30 50" stroke="white" stroke-width="3" fill="none" />
        <path d="M50 30 Q80 50 50 70 Q20 50 50 30" stroke="white" stroke-width="3" fill="none" />
        <circle cx="45" cy="45" r="3" fill="white" />
        <circle cx="55" cy="45" r="3" fill="white" />
    </g>
    
    <!-- Document Stack -->
    <g transform="translate(150, 150)">
        <!-- Back Document -->
        <rect x="20" y="20" width="120" height="160" rx="8" fill="#BFDBFE" />
        <!-- Middle Document -->
        <rect x="10" y="10" width="120" height="160" rx="8" fill="#93C5FD" />
        <!-- Front Document -->
        <rect x="0" y="0" width="120" height="160" rx="8" fill="#3B82F6" />
        
        <!-- Document Lines -->
        <rect x="15" y="30" width="80" height="4" rx="2" fill="white" opacity="0.8" />
        <rect x="15" y="45" width="90" height="4" rx="2" fill="white" opacity="0.6" />
        <rect x="15" y="60" width="60" height="4" rx="2" fill="white" opacity="0.8" />
    </g>
    
    <!-- Connected Lines -->
    <g stroke="#3B82F6" stroke-width="2" stroke-dasharray="4 4">
        <line x1="300" y1="150" x2="400" y2="200" />
        <line x1="300" y1="150" x2="350" y2="250" />
        <line x1="300" y1="150" x2="250" y2="250" />
    </g>
    
    <!-- Small Icons -->
    <g transform="translate(380, 180)">
        <circle cx="20" cy="20" r="15" fill="#22C55E" />
        <path d="M12 20L18 26L28 14" stroke="white" stroke-width="3" stroke-linecap="round" stroke-linejoin="round" />
    </g>
    
    <g transform="translate(330, 230)">
        <circle cx="20" cy="20" r="15" fill="#3B82F6" />
        <path d="M15 20L25 20M20 15L20 25" stroke="white" stroke-width="3" stroke-linecap="round" />
    </g>
    
    <g transform="translate(230, 230)">
        <circle cx="20" cy="20" r="15" fill="#3B82F6" />
        <path d="M13 20L27 20M20 13L20 27" stroke="white" stroke-width="3" stroke-linecap="round" />
    </g>
</svg> 