<?xml version="1.0" encoding="UTF-8"?>
<svg width="600" height="400" viewBox="0 0 600 400" fill="none" xmlns="http://www.w3.org/2000/svg">
    <!-- Background Elements -->
    <circle cx="500" cy="100" r="80" fill="#EFF6FF" />
    <circle cx="100" cy="300" r="60" fill="#DBEAFE" />
    
    <!-- Document Stack -->
    <g transform="translate(200, 100)">
        <!-- Back Document -->
        <rect x="20" y="20" width="160" height="200" rx="8" fill="#BFDBFE" />
        <!-- Middle Document -->
        <rect x="10" y="10" width="160" height="200" rx="8" fill="#93C5FD" />
        <!-- Front Document -->
        <rect x="0" y="0" width="160" height="200" rx="8" fill="#3B82F6" />
        
        <!-- Document Lines -->
        <rect x="20" y="40" width="100" height="6" rx="3" fill="white" opacity="0.8" />
        <rect x="20" y="60" width="120" height="6" rx="3" fill="white" opacity="0.6" />
        <rect x="20" y="80" width="80" height="6" rx="3" fill="white" opacity="0.8" />
        <rect x="20" y="100" width="110" height="6" rx="3" fill="white" opacity="0.6" />
    </g>
    
    <!-- Magnifying Glass -->
    <g transform="translate(380, 180)">
        <circle cx="40" cy="40" r="30" stroke="#1E40AF" stroke-width="8" fill="white" />
        <line x1="65" y1="65" x2="90" y2="90" stroke="#1E40AF" stroke-width="8" stroke-linecap="round" />
    </g>
    
    <!-- Check Marks -->
    <g transform="translate(150, 250)">
        <circle cx="20" cy="20" r="15" fill="#22C55E" />
        <path d="M12 20L18 26L28 14" stroke="white" stroke-width="3" stroke-linecap="round" stroke-linejoin="round" />
    </g>
    <g transform="translate(400, 80)">
        <circle cx="20" cy="20" r="15" fill="#22C55E" />
        <path d="M12 20L18 26L28 14" stroke="white" stroke-width="3" stroke-linecap="round" stroke-linejoin="round" />
    </g>
</svg> 